<svg id="Layer_1" data-name="Layer 1" xmlns="http://www.w3.org/2000/svg" viewBox="0 0 254.63 53.13">
    <defs>
        <style>.cls-1{fill:#fff;}.cls-2{fill:#7fb260;}.cls-3{fill:#4b9d4b;}</style>
    </defs>
    <title>Mesa de trabajo 74</title>
    <g id="Artwork_4" data-name="Artwork 4">
        <path class="cls-1"
              d="M3.89,19.18a1.13,1.13,0,0,0-1.27-1.27H.31V11.69h7c2.71,0,3.86,1.21,3.86,3.92v18a1.15,1.15,0,0,0,1.27,1.27h2.89v6.17H7.75c-2.71,0-3.86-1.15-3.86-3.92Z"/>
        <path class="cls-1"
              d="M30,11c6.81,0,9.06,4.15,9.06,4.15h.11V14.4c0-1.33.92-2.71,3.23-2.71h6.8v6.22H47a1.12,1.12,0,0,0-1.26,1.16V39.3c0,10.09-7.85,13.9-15.51,13.9a23.46,23.46,0,0,1-10.44-2.54L22,44.9a19,19,0,0,0,8.13,2c4.44,0,8.3-1.91,8.3-7.21V38.27c0-.7.06-1.56.06-1.56h-.12c-1.73,2.48-4.26,3.8-8.18,3.8C21.79,40.51,17,33.71,17,25.64S21.56,11,30,11Zm8.59,14.7c0-6.69-3.34-8.48-7.32-8.48-4.44,0-6.86,3.23-6.86,8.19,0,5.13,2.6,8.94,7.32,8.94C35.28,34.35,38.62,32.33,38.62,25.7Z"/>
        <path class="cls-1"
              d="M56.07,19.18a1.14,1.14,0,0,0-1.27-1.27H52.49V11.69h7c2.71,0,3.86,1.21,3.86,3.86V29.1c0,3.57.92,6,4.55,6,5.31,0,8.25-4.67,8.25-9.91V11.69h7.32v22a1.15,1.15,0,0,0,1.27,1.27H87v6.17H80.28c-2.54,0-3.86-1.21-3.86-3.29V37c0-.69.06-1.33.06-1.33h-.12a11.09,11.09,0,0,1-10.15,6.11c-6.28,0-10.14-3.17-10.14-11.18Z"/>
        <path class="cls-1"
              d="M107.55,22.64h.92v-.23c0-4.21-1.67-5.76-5.42-5.76-1.32,0-3.92.34-3.92,2v1.55h-6.8V17.05c0-5.48,7.73-6.05,10.78-6.05,9.8,0,12.69,5.13,12.69,11.7v11a1.15,1.15,0,0,0,1.26,1.27h2.31v6.17H112.8c-2.71,0-3.75-1.5-3.75-3.23a12.26,12.26,0,0,1,.06-1.27H109a9.58,9.58,0,0,1-8.88,5.19c-5.24,0-10-3.28-10-9.16C90.08,23.39,102.77,22.64,107.55,22.64ZM101.9,36.07c3.92,0,6.69-4.15,6.69-7.72v-.69h-1.27c-3.81,0-9.86.52-9.86,4.61C97.46,34.23,98.9,36.07,101.9,36.07Z"/>
        <path class="cls-1"
              d="M125.25,19.18A1.13,1.13,0,0,0,124,17.91h-2.3V11.69h6.74c2.6,0,3.87,1.21,3.87,3.28v.87a7.92,7.92,0,0,1-.12,1.27h.12A11.29,11.29,0,0,1,142.66,11c6.52,0,10.27,3.4,10.27,11.18V33.65a1.15,1.15,0,0,0,1.26,1.27h2.31v6.17h-7c-2.76,0-3.92-1.15-3.92-3.92V23.68c0-3.58-.92-6-4.61-6a8.07,8.07,0,0,0-7.9,6,12.52,12.52,0,0,0-.57,3.92V41.09h-7.27Z"/>
        <path class="cls-1"
              d="M176.91,22.64h.92v-.23c0-4.21-1.67-5.76-5.42-5.76-1.32,0-3.92.34-3.92,2v1.55h-6.8V17.05c0-5.48,7.73-6.05,10.78-6.05,9.8,0,12.69,5.13,12.69,11.7v11a1.15,1.15,0,0,0,1.26,1.27h2.31v6.17h-6.57c-2.71,0-3.75-1.5-3.75-3.23a12.26,12.26,0,0,1,.06-1.27h-.12a9.58,9.58,0,0,1-8.88,5.19c-5.24,0-10-3.28-10-9.16C159.44,23.39,172.13,22.64,176.91,22.64Zm-5.65,13.43c3.92,0,6.69-4.15,6.69-7.72v-.69h-1.27c-3.81,0-9.86.52-9.86,4.61C166.82,34.23,168.26,36.07,171.26,36.07Z"/>
        <path class="cls-1"
              d="M235.63,26.22l4.3-6.42,3.73-5.35c1.32-2.24,2.06-2.76,4.67-2.76h4.54v6.22h-2.69a2.4,2.4,0,0,0-2.27,1l-4.16,6.55-3.92,6.7-5.64,9h-8.13Z"/>
        <path class="cls-2"
              d="M235.63,26.22l-4.84-7.33c-.58-.86-1-1-2.25-1H213.33V11.69h18.21c2.42,0,3.46.52,4.78,2.76l18,26.64h-8.13Z"/>
        <rect class="cls-1" x="213.33" y="2.65" width="6.91" height="5.87" rx="0.49" ry="0.49"/>
        <rect class="cls-1" x="4.07" y="2.65" width="6.91" height="5.87" rx="0.49" ry="0.49"/>
        <path class="cls-1"
              d="M193.66,17.51H190V11.69h3.63v-.87c0-9.63,7.9-10.89,12-10.89a16,16,0,0,1,2.48.17V6.33a10.77,10.77,0,0,0-1.67-.12c-2.08,0-5.48.63-5.48,4.9v.58h15.63c2.71,0,3.92,1.21,3.92,3.92v18a1.15,1.15,0,0,0,1.27,1.27H224v6.17h-6.91c-2.77,0-3.93-1.15-3.93-3.92V18.78a1.15,1.15,0,0,0-1.26-1.27H201V41.09h-7.32Z"/>
        <polygon class="cls-3"
                 points="243.75 25.41 243.75 25.41 239.94 19.77 239.94 19.77 235.64 26.18 239.84 32.11 239.84 32.11 243.75 25.41"/>
    </g>
</svg>